<svg xmlns="http://www.w3.org/2000/svg" width="32" height="32" fill="currentColor" viewBox="0 0 32 32">
  <path d="M16 2a9 9 0 0 1 9 8.999 8.96 8.96 0 0 1-1.83 5.436c.163.233.317.468.46.705.848 1.404 1.37 2.91 1.37 4.255a9 9 0 1 1-16.304-5.257C7.598 14.4 7 12.528 7 10.999A9 9 0 0 1 16 2ZM9.977 17.831A7.001 7.001 0 0 0 16 28.396a7 7 0 0 0 7-7c0-.299-.045-.63-.13-.987-4.62 2.015-8.517 1.056-11.294-1.086a11.968 11.968 0 0 1-1.6-1.492Zm8.872-2.982c-2.418-1.76-5.644-2.652-9.23-1.244.616 1.447 1.688 2.984 3.18 4.135 2.216 1.71 5.361 2.566 9.333.81a9.83 9.83 0 0 0-.215-.377 11.605 11.605 0 0 0-3.068-3.324ZM16 3.999a7 7 0 0 0-7 7c0 .214.019.442.054.682 4.255-1.606 8.135-.513 10.972 1.551a13.678 13.678 0 0 1 1.829 1.601A7 7 0 0 0 16 3.999Z"/>
</svg>
